<?xml version="1.0" standalone="no"?>
<!DOCTYPE svg PUBLIC "-//W3C//DTD SVG 20010904//EN"
 "http://www.w3.org/TR/2001/REC-SVG-20010904/DTD/svg10.dtd">
<svg version="1.0" xmlns="http://www.w3.org/2000/svg"
 width="700.000000pt" height="700.000000pt" viewBox="0 0 700.000000 700.000000"
 preserveAspectRatio="xMidYMid meet">
<metadata>
Created by potrace 1.14, written by Peter Selinger 2001-2017
</metadata>
<g transform="translate(0.000000,700.000000) scale(0.100000,-0.100000)"
fill="#000000" stroke="none">
<path d="M3185 6989 c-166 -17 -309 -40 -465 -76 -1629 -374 -2766 -1841
-2717 -3508 20 -677 210 -1279 583 -1840 276 -417 663 -790 1084 -1048 450
-274 919 -434 1465 -499 143 -17 596 -17 735 0 604 74 1115 261 1590 583 838
568 1385 1458 1515 2469 23 174 30 522 16 706 -82 1019 -593 1936 -1423 2550
-148 109 -285 194 -473 290 -373 192 -719 299 -1155 360 -136 18 -619 27 -755
13z m710 -904 c48 -386 74 -786 78 -1185 1 -227 0 -250 -20 -307 -50 -148
-167 -268 -304 -312 l-35 -11 4 -178 c2 -97 7 -273 10 -389 l7 -213 50 62
c120 148 288 263 445 303 90 24 277 16 375 -15 419 -131 699 -589 672 -1101
l-5 -105 105 -17 c118 -19 126 -22 119 -45 -2 -10 -7 -42 -11 -73 -10 -89 -12
-90 -130 -69 -55 10 -102 17 -103 15 -2 -2 -29 -124 -59 -272 -30 -147 -58
-271 -61 -275 -10 -10 -309 -65 -542 -98 -162 -24 -207 -27 -216 -17 -28 30
-45 135 -26 163 4 6 34 19 67 28 214 60 396 167 501 294 60 73 131 200 118
212 -5 4 -40 12 -79 19 -38 6 -322 53 -630 106 -426 72 -561 92 -567 82 -4 -6
-5 -77 -2 -157 7 -205 44 -1740 44 -1844 l0 -86 -200 0 -200 0 0 68 c0 85 28
1234 34 1406 l5 128 -72 -71 c-194 -191 -343 -260 -560 -261 -149 0 -289 37
-406 108 -200 121 -341 304 -414 537 -40 127 -50 199 -51 352 l-1 143 -25 4
c-14 3 -54 10 -90 16 -123 20 -113 10 -108 100 1 44 8 84 15 91 9 9 37 8 123
-6 61 -10 112 -16 114 -14 2 2 27 100 56 216 38 153 58 214 69 218 75 23 407
55 572 55 131 0 129 2 129 -86 0 -58 -17 -74 -97 -95 -123 -31 -288 -125 -384
-220 -56 -55 -115 -127 -108 -132 2 -2 265 -48 583 -102 318 -53 586 -100 595
-102 11 -3 26 13 47 49 l32 53 11 490 c6 270 14 542 17 606 l6 117 -48 16
c-157 53 -289 216 -313 386 -10 72 1 558 19 828 15 219 44 503 72 705 l23 162
6 -110 c4 -60 12 -225 19 -365 23 -521 56 -854 91 -949 13 -33 35 -12 54 52
38 129 108 625 156 1107 12 124 25 228 28 232 4 4 17 -95 29 -220 66 -648 142
-1137 185 -1180 13 -13 16 -12 26 6 26 49 59 334 81 712 11 191 29 583 31 670
l1 55 9 -45 c5 -25 20 -135 34 -245z"/>
<path d="M4255 3411 c-81 -20 -98 -28 -181 -88 -76 -53 -151 -151 -245 -319
-39 -69 -69 -127 -67 -128 3 -2 407 -71 1046 -179 100 -16 185 -27 188 -24 14
14 6 253 -11 317 -39 150 -163 313 -283 374 -126 64 -304 83 -447 47z"/>
<path d="M2013 2953 c-15 -53 -8 -254 11 -318 69 -233 252 -358 521 -358 176
0 280 46 415 185 65 66 237 305 227 314 -4 4 -200 39 -792 139 -181 30 -340
57 -352 60 -18 4 -24 0 -30 -22z"/>
</g>
</svg>
