<svg width="48mm" height="48mm" version="1.1" viewBox="0 0 48 48" xmlns="http://www.w3.org/2000/svg" xmlns:xlink="http://www.w3.org/1999/xlink">
<defs>
<linearGradient id="linearGradient9712" x1="177.11" x2="177.11" y1="213.3" y2="61.286" gradientUnits="userSpaceOnUse">
<stop stop-color="#b98a4e" offset="0"/>
<stop stop-color="#f7e272" offset="1"/>
</linearGradient>
<linearGradient id="linearGradient9146" x1="170.08" x2="170.08" y1="205.83" y2="50.741" gradientUnits="userSpaceOnUse">
<stop stop-color="#916b49" offset="0"/>
<stop stop-color="#f7e272" offset="1"/>
</linearGradient>
</defs>
<g transform="translate(-50.018 -5.9027)">
<g transform="matrix(.32055 0 0 .32055 41.246 -13.684)">
<circle cx="102.24" cy="135.98" r="74.871" fill="url(#linearGradient9712)" stroke-width=".26458"/>
<circle cx="102.24" cy="135.45" r="67.842" fill="#571919" fill-opacity=".375" stroke-width=".23974"/>
<circle cx="102.24" cy="135.98" r="67.842" fill="url(#linearGradient9146)" stroke-opacity="0"/>
<path d="m94.213 73.821c-0.66258 3.792-1.1244 7.616-1.513 11.445-0.80208 8.0556-1.1852 16.151-1.2115 24.246 0.01943 2.8451 1.1754 5.6665 3.18 7.6891 1.2627 1.2872 2.8524 2.2541 4.5829 2.7645-0.20826 8.476-0.41651 16.952-0.62477 25.428-0.30888 0.50727-0.60612 1.0229-0.9586 1.5007-0.07117 0.13748-0.13456 0.27969-0.31124 0.1869-8.0625-1.377-16.125-2.7539-24.188-4.1308 1.3624-1.8925 3.1711-3.4361 5.1818-4.6045 1.9323-1.1762 4.0563-2.1224 6.3199-2.3966 0.48134-0.4533 0.76033-1.0912 0.80304-1.7477 0.05332-0.95792-0.05994-1.9716-0.58586-2.7974-0.05166-0.19896-0.28389-0.0815-0.43441-0.1072-2.2832 0.0492-4.5681 0.0801-6.8468 0.24144-1.7073 0.0959-3.4 0.35044-5.0955 0.5613-1.1606 0.15909-2.3127 0.37564-3.453 0.64358-0.55852 2.717-1.3091 5.3884-1.9746 8.0798-0.08346 0.35165-0.17277 0.70194-0.25011 1.055-1.4662-0.23785-2.9315-0.49268-4.3982-0.71999-0.50274-2e-3 -0.83408 0.46166-0.96235 0.9004-0.29926 1.0074-0.30405 2.0713-0.33314 3.1134-2e-3 0.31006-4e-3 0.62011-0.0062 0.93017 1.6489 0.28139 3.2976 0.56405 4.9465 0.84594-0.10793 1.9188-0.14311 3.8497 0.09414 5.7607 0.37897 3.1633 1.3546 6.2651 2.9262 9.0401 1.777 3.1217 4.4121 5.7457 7.5324 7.5229 2.4824 1.4106 5.3275 2.1481 8.1785 2.1912 2.2949 0.0385 4.6242-0.31924 6.7341-1.2475 1.3254-0.57568 2.5246-1.3998 3.6377-2.3138 1.0328-0.82807 2.0289-1.7042 2.955-2.6507-0.27272 11.106-0.54652 22.211-0.81856 33.317h9.833c-0.36659-14.945-0.73497-29.89-1.1023-44.835 8.7642 1.4879 17.528 2.9759 26.292 4.4638-1.1727 2.6617-3.0995 4.9777-5.4765 6.649-1.1725 0.83093-2.5036 1.3897-3.7994 1.9944-0.86848 0.38881-1.746 0.76432-2.6662 1.0141-0.69272 0.2125-1.4005 0.38005-2.1006 0.55822-0.59158 0.28343-0.84954 0.9609-0.85868 1.5826-0.0166 0.82166 0.19064 1.6346 0.47243 2.4009 0.1521 0.41738 0.38906 0.79964 0.70062 1.1167 1.2113-0.0203 2.41-0.22369 3.609-0.3796 4.4551-0.64039 8.8967-1.386 13.302-2.3143 0.80555-3.8571 1.6382-7.7086 2.3921-11.576-9e-3 -0.21317 0.25917-0.0277 0.38574-0.0459 1.1712 0.19591 2.3416 0.40999 3.5132 0.59465 0.51485 2e-3 0.87122-0.46006 1.0171-0.90946 0.21219-0.63 0.28874-1.2958 0.39057-1.9502 0.0957-0.69136 0.11587-1.3896 0.11783-2.0867-1.5902-0.26209-3.1802-0.52546-4.7702-0.78807 0.20786-2.7289 0.19556-5.4916-0.29568-8.1912-0.56113-3.1388-1.6784-6.1893-3.3537-8.9064-1.7983-2.9005-4.294-5.3705-7.2256-7.1198-2.4615-1.46-5.2923-2.2742-8.1504-2.3808-1.6793-0.0882-3.3781 0.11869-4.9688 0.67309-1.7504 0.57057-3.4471 1.3717-4.879 2.543-0.94159 0.76374-1.8122 1.611-2.6745 2.462-0.49831 0.50389-0.98475 1.0201-1.4404 1.5632l-0.36225-14.734c2.7891-0.81464 5.179-2.8357 6.5058-5.4136 0.90424-1.725 1.321-3.6882 1.2548-5.6314-0.0519-8.8805-0.5236-17.762-1.5226-26.588-0.32965-2.8464-0.70197-5.6893-1.1995-8.5118-0.20585-0.41738-0.41169-0.83475-0.61754-1.2521-0.13987 0.461-0.31885 0.91517-0.43418 1.3805-0.17216 5.5558-0.40521 11.126-0.73236 16.675-0.20261 3.3068-0.42696 6.6041-0.79768 9.9016-0.13576 1.1384-0.27722 2.2686-0.51968 3.3985-0.0533 0.24103-0.11117 0.48159-0.18673 0.71669-0.44232-1.2295-0.66891-2.5227-0.91727-3.8018-0.58997-3.2631-1.0194-6.5097-1.4361-9.8006-0.68375-5.5225-1.2684-11.045-1.7989-16.582-0.0343-0.30187-0.0206-0.61568-0.17799-0.88692-0.13495-0.32514-0.26991-0.65028-0.40486-0.97541-0.17223 0.44168-0.3848 0.87332-0.53158 1.3213-0.57953 6.0872-1.2198 12.16-1.9902 18.228-0.35601 2.7572-0.7275 5.4709-1.2085 8.2099-0.25763 1.3889-0.49984 2.7893-0.94742 4.1324-0.05456 0.27797-0.10023 0.0199-0.13863-0.11931-0.28974-1.1514-0.43844-2.3322-0.58434-3.4963-0.44496-3.8328-0.68695-7.6675-0.9128-11.516-0.28677-5.1433-0.50202-10.309-0.65983-15.458-0.14418-0.44252-0.28836-0.88504-0.43253-1.3276-0.20584 0.41738-0.41169 0.83475-0.61753 1.2521zm27.398 64.201c2.2907-5e-3 4.635 0.45956 6.6037 1.6735 1.6007 0.9729 2.8876 2.4019 3.8622 3.9892 1.2709 2.0775 1.8374 4.5334 1.809 6.9561-4e-3 0.85641-0.0365 1.7142-0.13972 2.5648l-25.13-4.2654c0.58816-1.1369 1.189-2.2676 1.8598-3.3584 0.48818-0.85812 0.96381-1.7301 1.5922-2.4965 0.52493-0.64668 0.98353-1.349 1.5611-1.9514 0.38605-0.38203 0.86447-0.65281 1.2897-0.98814 0.74754-0.53603 1.4597-1.1857 2.3769-1.4106 1.3974-0.42764 2.8479-0.72518 4.315-0.71314zm-26.859 13.806c-1.1893 1.9153-2.4173 3.8258-3.9585 5.4817-0.49948 0.54219-1.009 1.0762-1.5496 1.5778-0.08507 0.0778-0.24558 0.22008-0.36285 0.31852-1.1355 0.95612-2.449 1.7396-3.9022 2.0907-1.3396 0.35229-2.738 0.43543-4.1169 0.35028-0.3124-0.0206-0.68963-0.0544-1.0255-0.10015-1.2335-0.15395-2.4455-0.49088-3.5635-1.038-1.0884-0.53578-2.1652-1.1646-2.971-2.0893-0.96395-1.0841-1.6024-2.4214-2.0338-3.7966-0.50216-1.7006-0.64058-3.4953-0.5393-5.2606 0.03593-0.52833 0.10761-1.0546 0.2216-1.5719 7.9339 1.3458 15.868 2.6917 23.802 4.0375z" fill="#694141"/>
<path d="m94.734 74.442s-2.6391 14.014-2.7177 35.461c0 4.9304 3.3117 9.0652 7.7747 10.191l-0.63872 25.982c-0.33728 0.5618-0.62711 1.0351-0.83509 1.3555-0.0736 0.0756-0.16556 0.20793-0.27595 0.39688-0.11039 0.18895-0.18386 0.32129-0.22066 0.39687l-25.557-4.3646c1.3983-2.154 3.2751-3.9301 5.6301-5.3284 2.3183-1.436 4.4894-2.2862 6.5133-2.5507 0.36798-0.3779 0.5519-0.90729 0.5519-1.5875 0-0.86917-0.14693-1.5494-0.44132-2.0407-0.11039 0-0.99353 0.0191-2.6494 0.0569-1.6559 0.0378-2.9624 0.0944-3.9191 0.17001-0.99355 0.0378-2.3185 0.17014-3.9744 0.39688-1.6927 0.18895-3.1826 0.43459-4.4705 0.7369-0.29439 1.3982-0.69922 3.0796-1.2144 5.0447-0.51518 1.9651-0.86504 3.3822-1.049 4.2514l-4.8023-0.79324c-0.51518 0-0.77256 1.3224-0.77256 3.9677l4.9677 0.85008c-0.0736 1.2848-0.11007 2.324-0.11007 3.1176 0 3.6656 0.75418 7.1236 2.2629 10.374 1.5087 3.2121 3.7168 5.8385 6.6239 7.8791 2.9071 2.0406 6.1637 3.0608 9.7699 3.0608 1.6559 0 3.2383-0.22658 4.747-0.68006 1.4719-0.45347 2.8519-1.1713 4.1398-2.1539s2.4285-1.9651 3.422-2.9476c0.39562-0.39123 0.80025-0.83273 1.2134-1.3198l-0.84078 34.203h8.7488l-1.0955-44.555c0.0708-0.12375 0.12562-0.21728 0.19843-0.34468l27.378 4.6483c-0.77277 1.9273-1.8403 3.6277-3.2019 5.1015-1.3615 1.4738-2.8334 2.6078-4.4158 3.4014-1.6191 0.79358-2.9251 1.3791-3.9186 1.757-1.0304 0.3401-2.0424 0.62333-3.036 0.85007-0.36798 0.18895-0.5519 0.60505-0.5519 1.2475 0 0.41569 0.092 0.94456 0.27595 1.587 0.18399 0.60464 0.38641 1.0202 0.6072 1.247 0.69916 0 2.8703-0.28323 6.5133-0.85008 3.6062-0.56685 6.8444-1.1529 9.7146-1.7575 1.5087-7.1422 2.3184-11.091 2.4288-11.847l4.3052 0.73691c0.33119 0 0.57059-0.45369 0.71779-1.3606 0.18399-0.94474 0.27595-1.8135 0.27595-2.6071l-4.8023-0.79375c0.11039-1.2471 0.16588-2.4943 0.16588-3.7414 0-3.9301-0.79118-7.6147-2.3735-11.054-1.5823-3.4389-3.8824-6.2542-6.8998-8.446-3.0174-2.1918-6.4031-3.2876-10.156-3.2876-1.2879 0-2.5204 0.18899-3.698 0.56689-1.2143 0.3779-2.2999 0.83158-3.2566 1.3606-0.95675 0.52906-1.9318 1.266-2.9254 2.2107-1.0304 0.94474-1.8955 1.814-2.5947 2.6076-0.3706 0.42064-0.76317 0.91514-1.1751 1.4738l-0.40877-16.625c4.4629-1.1259 7.7742-5.2607 7.7742-10.191-0.0785-21.447-2.7172-35.461-2.7172-35.461s-0.89888 31.633-2.744 31.633c-1.8451 0-4.7584-31.633-4.7584-31.633s-2.9132 31.633-4.7584 31.633c-1.8451 0-2.744-31.633-2.744-31.633zm26.876 63.58c3.9742 0 7.1024 1.2848 9.3839 3.8546 2.2815 2.5319 3.422 5.5929 3.422 9.1829 0 1.2848-0.0735 2.3812-0.22066 3.2882l-26.384-4.4783c0.58877-1.1337 0.95661-1.833 1.1038-2.0976 0.14719-0.30231 0.51555-0.94448 1.1043-1.927 0.55198-0.98253 0.93832-1.6252 1.1591-1.9275 0.22079-0.30232 0.62563-0.83119 1.2144-1.587 0.55198-0.7558 1.0118-1.2471 1.3798-1.4738 0.36798-0.26452 0.88328-0.64251 1.5456-1.1338 0.62557-0.49126 1.2328-0.8126 1.8216-0.96376 0.58877-0.18895 1.2695-0.35889 2.0422-0.51005s1.5819-0.22686 2.4283-0.22686zm-51.057 9.6935 25.059 4.2509c-1.0304 1.7005-1.932 3.0801-2.7047 4.1382s-1.7294 2.154-2.8701 3.2876c-1.1407 1.1337-2.3732 1.9839-3.698 2.5508-1.3615 0.52906-2.8519 0.79375-4.471 0.79375-1.3983 0-2.7233-0.16994-3.9744-0.51004-1.2879-0.3779-2.5389-0.98247-3.7533-1.8138-1.2143-0.86916-2.1709-2.1164-2.8701-3.7414-0.73596-1.625-1.1043-3.571-1.1043-5.8384 0-1.1337 0.12895-2.1729 0.38654-3.1176z" fill="#8d6b15" fill-opacity=".098958"/>
<path d="m107.05 61.276-0.45683 6.875a67.987 67.987 0 0 1 0.1452-0.0021 67.987 67.987 0 0 1 0.1447 0.01344l0.4563-6.8678a74.871 74.871 0 0 0-0.28937-0.01861zm2.8355 0.231-0.73279 6.9949a67.842 67.842 0 0 1 0.28631 0.02739l0.73223-6.9903a74.871 74.871 0 0 0-0.28575-0.03204zm-19.251 0.52607a74.871 74.871 0 0 0-0.28318 0.05323l1.078 6.7882a67.987 67.987 0 0 1 0.14004-0.03359 67.987 67.987 0 0 1 0.14417-0.01189zm-2.7921 0.52813a74.871 74.871 0 0 0-0.28424 0.05374l1.3627 6.8854a67.987 67.987 0 0 1 0.28527-0.04806zm38.38 2.5068-2.2226 6.5283a67.987 67.987 0 0 1 0.27543 0.08837l2.2216-6.5252a74.871 74.871 0 0 0-0.27443-0.09147zm2.6779 0.96066-2.5182 6.5665a67.842 67.842 0 0 1 0.26871 0.10284l2.5172-6.5645a74.871 74.871 0 0 0-0.2677-0.1049zm-56.997 1.558a74.871 74.871 0 0 0-0.26562 0.11576l2.8572 6.4105a67.987 67.987 0 0 1 0.24753-0.10232 67.842 67.842 0 0 1 0.01964-0.0093zm-2.5916 1.1705a74.871 74.871 0 0 0-0.25476 0.13436l3.1037 6.3092a67.842 67.842 0 0 1 0.26252-0.12092zm74.448 4.9356-3.8416 5.7376a67.987 67.987 0 0 1 0.24339 0.15968l3.8416-5.7382a74.871 74.871 0 0 0-0.24339-0.15916zm2.3358 1.6242-4.0488 5.5769a67.987 67.987 0 0 1 0.23307 0.1695l4.0483-5.5764a74.871 74.871 0 0 0-0.23254-0.17002zm-90.885 2.4216a74.871 74.871 0 0 0-0.21756 0.18758l4.4385 5.4767a67.842 67.842 0 0 1 0.03669-0.02894 67.987 67.987 0 0 1 0.18242-0.15606zm-2.1544 1.8536a74.871 74.871 0 0 0-0.21808 0.1881l4.5103 5.1527a67.987 67.987 0 0 1 0.21704-0.18913zm105.41 6.9696-5.1992 4.5511a67.987 67.987 0 0 1 0.19068 0.21756l5.1966-4.5491a74.871 74.871 0 0 0-0.18809-0.21963zm1.8319 2.1761-5.4601 4.4245a67.842 67.842 0 0 1 0.18344 0.22273l5.4586-4.4235a74.871 74.871 0 0 0-0.1819-0.22376zm-118.54 3.1755a74.871 74.871 0 0 0-0.17105 0.23151l5.5413 4.023a67.987 67.987 0 0 1 0.1695-0.23306zm-1.6583 2.3089a74.871 74.871 0 0 0-0.15296 0.2434l5.8518 3.9181a67.987 67.987 0 0 1 0.1664-0.23461zm129.24 8.5819-6.1934 3.0474a67.987 67.987 0 0 1 0.12454 0.25993l6.1944-3.0479a74.871 74.871 0 0 0-0.12557-0.25942zm1.2098 2.574-6.4218 2.8618a67.842 67.842 0 0 1 0.11834 0.26406l6.4228-2.8618a74.871 74.871 0 0 0-0.11935-0.26406zm-138.17 3.6721a74.871 74.871 0 0 0-0.0956 0.27233l6.5763 2.5218a67.987 67.987 0 0 1 0.10697-0.25787 67.842 67.842 0 0 1 0.0031-9e-3zm-0.93896 2.6841a74.871 74.871 0 0 0-0.09509 0.2713l6.6337 2.2588a67.842 67.842 0 0 1 0.09973-0.26975zm144.19 9.572-6.7593 1.3379a67.987 67.987 0 0 1 0.0506 0.28267l6.7634-1.3389a74.871 74.871 0 0 0-0.0548-0.28164zm0.50591 2.7983-6.8079 1.0806a67.987 67.987 0 0 1 0.0341 0.14107 67.987 67.987 0 0 1 0.0186 0.14418l6.8032-1.08a74.871 74.871 0 0 0-0.0481-0.28577zm-148.32 3.9445a74.871 74.871 0 0 0-0.03204 0.2868l6.9867 0.73174a67.842 67.842 0 0 1 0.0031-0.0238 67.987 67.987 0 0 1 0.02015-0.26407zm-0.28164 2.8288a74.871 74.871 0 0 0-0.01085 0.28732l6.8559 0.45579a67.987 67.987 0 0 1-0.0021-0.14366 67.987 67.987 0 0 1 0.02119-0.14315zm142.52 9.4728a67.987 67.987 0 0 1-6e-3 0.14366 67.987 67.987 0 0 1-0.0212 0.14263l6.876 0.45682a74.871 74.871 0 0 0 0.0181-0.28681zm-0.22738 2.5719a67.987 67.987 0 0 1-0.0248 0.28783l6.8559 0.71779a74.871 74.871 0 0 0 0.032-0.2868zm-134.77 3.5786-6.7949 1.079a74.871 74.871 0 0 0 0.05374 0.28526l6.7867-1.0775a67.987 67.987 0 0 1-0.03411-0.14159 67.987 67.987 0 0 1-0.01137-0.14521zm0.62373 2.5084-6.89 1.3643a74.871 74.871 0 0 0 0.05374 0.28422l6.8848-1.3627a67.987 67.987 0 0 1-0.04858-0.28577zm130.8 8.7054a67.842 67.842 0 0 1-0.0961 0.27234l6.6549 2.266a74.871 74.871 0 0 0 0.0915-0.27388zm-0.75655 2.4681a67.987 67.987 0 0 1-0.10179 0.27234l6.443 2.4706a74.871 74.871 0 0 0 0.10593-0.27079zm-125.49 3.2685-6.4151 2.8592a74.871 74.871 0 0 0 0.11576 0.2651l6.4105-2.8567a67.987 67.987 0 0 1-0.1111-0.26768zm1.079 2.3399-6.3236 3.1109a74.871 74.871 0 0 0 0.13436 0.25373l6.3092-3.1037a67.842 67.842 0 0 1-0.11989-0.26097zm117.35 7.814a67.842 67.842 0 0 1-0.15864 0.24081l5.8436 3.9124a74.871 74.871 0 0 0 0.15814-0.24133zm-1.3668 2.1895a67.987 67.987 0 0 1-0.17002 0.23461l5.5862 4.0556a74.871 74.871 0 0 0 0.17052-0.23409zm-107.85 2.7678-5.4782 4.4395a74.871 74.871 0 0 0 0.18965 0.22066l5.4772-4.439a67.987 67.987 0 0 1-0.0026-3e-3 67.987 67.987 0 0 1-0.18604-0.21807zm1.5276 2.0867-5.1506 4.5088a74.871 74.871 0 0 0 0.1881 0.21807l5.1521-4.5098a67.987 67.987 0 0 1-0.18965-0.21704zm96.123 6.3888a67.987 67.987 0 0 1-0.21706 0.19068l4.5393 5.1857a74.871 74.871 0 0 0 0.22013-0.1881zm-1.9772 1.6604a67.987 67.987 0 0 1-0.22582 0.17932l4.346 5.3625a74.871 74.871 0 0 0 0.22376-0.1819zm-82.956 2.2102-4.0209 5.5382a74.871 74.871 0 0 0 0.23306 0.17156l4.022-5.5402a67.987 67.987 0 0 1-0.2341-0.1695zm2.2143 1.3327-3.9259 5.8642a74.871 74.871 0 0 0 0.24443 0.15348l3.9171-5.8508a67.987 67.987 0 0 1-0.23565-0.16691zm67.917 4.5517a67.842 67.842 0 0 1-0.26202 0.12557l3.1027 6.3061a74.871 74.871 0 0 0 0.26148-0.12661zm-2.2774 1.2232a67.987 67.987 0 0 1-0.26458 0.11214l2.8071 6.2988a74.871 74.871 0 0 0 0.26199-0.11834zm-52.21 1.2201-2.5275 6.5908a74.871 74.871 0 0 0 0.27234 0.0956l2.5213-6.5758a67.987 67.987 0 0 1-0.26614-0.11059zm2.4164 0.89142-2.2603 6.6389a74.871 74.871 0 0 0 0.27286 0.0951l2.2588-6.6342a67.842 67.842 0 0 1-0.2713-0.0997zm35.306 2.3745a67.842 67.842 0 0 1-0.28318 0.0579l1.3643 6.8931a74.871 74.871 0 0 0 0.28368-0.0558zm-2.514 0.60306a67.987 67.987 0 0 1-0.14107 0.0264 67.987 67.987 0 0 1-0.1442 0.0114l1.0811 6.8094a74.871 74.871 0 0 0 0.28371-0.0481zm-18.008 0.30076-0.7307 6.9768a74.871 74.871 0 0 0 0.28678 0.0325l0.73176-6.9866a67.987 67.987 0 0 1-0.0021 0 67.987 67.987 0 0 1-0.28575-0.0227zm2.5549 0.39584-0.4563 6.8632a74.871 74.871 0 0 0 0.2899 0.0109l0.4558-6.8549a67.987 67.987 0 0 1-0.14573 2e-3 67.987 67.987 0 0 1-0.14367-0.0212z" color="#000000" fill="#b25c28" fill-opacity=".61458"/>
</g>
</g>
</svg>
